<svg width="24" height="24" viewBox="0 0 24 24" fill="none" xmlns="http://www.w3.org/2000/svg">
<g id="Group">
<path id="Path" fill-rule="evenodd" clip-rule="evenodd" d="M11.0801 7.38857C11.2528 7.03837 11.6094 6.81665 11.9999 6.81665C12.3904 6.81665 12.747 7.03837 12.9197 7.38857L13.6701 8.90967C13.8195 9.21246 14.1083 9.42235 14.4424 9.47092L16.1206 9.71484C16.5069 9.77098 16.8279 10.0415 16.9485 10.4128C17.0692 10.784 16.9687 11.1915 16.6893 11.4641L15.4746 12.6488C15.233 12.8845 15.1228 13.2239 15.1799 13.5565L15.4665 15.2277C15.5325 15.6125 15.3744 16.0013 15.0585 16.2308C14.7427 16.4603 14.324 16.4906 13.9785 16.309L12.4771 15.52C12.1783 15.363 11.8215 15.363 11.5227 15.52L10.0213 16.3091C9.67575 16.4907 9.25703 16.4604 8.94121 16.2309C8.62539 16.0014 8.46724 15.6125 8.53325 15.2277L8.81989 13.5565C8.87695 13.2239 8.76674 12.8845 8.52515 12.6488L7.31052 11.4641C7.03108 11.1915 6.93057 10.784 7.05125 10.4128C7.17193 10.0415 7.49286 9.77098 7.87915 9.71484L9.55738 9.47092C9.8915 9.42235 10.1803 9.21246 10.3297 8.90967L11.0801 7.38857Z" stroke="#363638" stroke-width="1.5" stroke-linecap="round" stroke-linejoin="round"/>
<path id="Path_2" d="M21.0327 9.06508L20.0291 9.39121" stroke="#363638" stroke-width="1.5" stroke-linecap="round" stroke-linejoin="round"/>
<path id="Path_3" d="M3.97099 14.6088L2.96729 14.9349" stroke="#363638" stroke-width="1.5" stroke-linecap="round" stroke-linejoin="round"/>
<path id="Path_4" d="M12 21.5V20.4445" stroke="#363638" stroke-width="1.5" stroke-linecap="round" stroke-linejoin="round"/>
<path id="Path_5" d="M12 2.5V3.55556" stroke="#363638" stroke-width="1.5" stroke-linecap="round" stroke-linejoin="round"/>
<path id="Path_6" d="M17.5784 19.678L16.9587 18.8249" stroke="#363638" stroke-width="1.5" stroke-linecap="round" stroke-linejoin="round"/>
<path id="Path_7" d="M6.42156 4.32197L7.04133 5.1751" stroke="#363638" stroke-width="1.5" stroke-linecap="round" stroke-linejoin="round"/>
<path id="Path_8" d="M2.96729 9.06508L3.97099 9.39121" stroke="#363638" stroke-width="1.5" stroke-linecap="round" stroke-linejoin="round"/>
<path id="Path_9" d="M21.0328 14.9349L20.0291 14.6088" stroke="#363638" stroke-width="1.5" stroke-linecap="round" stroke-linejoin="round"/>
<path id="Path_10" d="M17.5784 4.32197L16.9587 5.1751" stroke="#363638" stroke-width="1.5" stroke-linecap="round" stroke-linejoin="round"/>
<path id="Path_11" d="M6.42156 19.678L7.04133 18.8249" stroke="#363638" stroke-width="1.5" stroke-linecap="round" stroke-linejoin="round"/>
</g>
</svg>
