<svg width="24" height="24" viewBox="0 0 24 24" fill="none" xmlns="http://www.w3.org/2000/svg">
<g id="Group">
<path id="Path" d="M14 18.2354V21.4998C14 21.6537 13.9291 21.7991 13.8077 21.8939C13.6863 21.9886 13.5281 22.0222 13.3787 21.9849L12.2425 21.7009C12.0833 21.661 11.9167 21.661 11.7575 21.7009L10.6213 21.9849C10.4719 22.0222 10.3137 21.9886 10.1923 21.8939C10.0709 21.7991 10 21.6537 10 21.4998V18.2357" stroke="#6D6D70" stroke-width="1.5" stroke-linecap="round" stroke-linejoin="round"/>
<circle id="Oval" cx="12" cy="16" r="3" stroke="#6D6D70" stroke-width="1.5" stroke-linecap="round" stroke-linejoin="round"/>
<path id="Path_2" d="M17 19H19C20.1046 19 21 18.1046 21 17V5C21 3.89543 20.1046 3 19 3H5C3.89543 3 3 3.89543 3 5V17C3 18.1046 3.89543 19 5 19H7" stroke="#6D6D70" stroke-width="1.5" stroke-linecap="round" stroke-linejoin="round"/>
<path id="Path_3" d="M17 7H7" stroke="#6D6D70" stroke-width="1.5" stroke-linecap="round" stroke-linejoin="round"/>
<path id="Path_4" d="M17 10H7" stroke="#6D6D70" stroke-width="1.5" stroke-linecap="round" stroke-linejoin="round"/>
</g>
</svg>
